<?xml version="1.0" encoding="UTF-8" standalone="no"?>
<svg
   version="1.1"
   id="svg2"
   width="129.53648"
   height="83.4412"
   viewBox="0 0 129.53648 83.441197"
   sodipodi:docname="about2.svg"
   inkscape:export-filename="../../../Dropbox/MetaAbsDesign/images/about.svg"
   inkscape:export-xdpi="96"
   inkscape:export-ydpi="96"
   xmlns:inkscape="http://www.inkscape.org/namespaces/inkscape"
   xmlns:sodipodi="http://sodipodi.sourceforge.net/DTD/sodipodi-0.dtd"
   xmlns="http://www.w3.org/2000/svg"
   xmlns:svg="http://www.w3.org/2000/svg">
  <defs
     id="defs6">
    <clipPath
       clipPathUnits="userSpaceOnUse"
       id="clipPath32">
      <path
         d="m 427.885,320.457 h 424.23 v 159.087 h -424.23 z"
         id="path30" />
    </clipPath>
    <clipPath
       clipPathUnits="userSpaceOnUse"
       id="clipPath116">
      <path
         d="M 514,328 H 766 V 472 H 514 Z"
         id="path114" />
    </clipPath>
    <clipPath
       clipPathUnits="userSpaceOnUse"
       id="clipPath124">
      <path
         d="m 626.075,441.627 h 27.567 v -88.214 h -27.567 z"
         id="path122" />
    </clipPath>
  </defs>
  <sodipodi:namedview
     id="namedview4"
     pagecolor="#FFFFFF"
     bordercolor="#eeeeee"
     borderopacity="1"
     inkscape:showpageshadow="0"
     inkscape:pageopacity="0"
     inkscape:pagecheckerboard="0"
     inkscape:deskcolor="#505050"
     showgrid="false" />
  <g
     id="g10"
     inkscape:groupmode="layer"
     inkscape:label="Page 1"
     transform="matrix(1.3333333,0,0,-1.3333333,-950.80251,753.39788)">
    <g
       id="g26"
       transform="matrix(0.75748373,0,0,0.70942952,274.69948,251.74576)">
      <g
         id="g28"
         clip-path="url(#clipPath32)">
        <g
           id="g34"
           transform="translate(664.7495,404.104)">
          <path
             d="m 0,0 -0.785,1.178 -0.591,1.375 c -15.39,26.735 -30.141,-9.728 -36.906,-22.184 l -0.983,-1.572 -0.981,-1.373 c -16.097,-24.508 -31.054,-5.74 -41.031,12.76 l -2.355,4.515 -2.356,4.32 6.283,3.14 3.336,-6.282 3.534,-6.477 c 15.719,-25.376 21.304,-19.656 33.374,4.123 l 2.553,4.907 1.57,2.553 c 9.836,18.093 26.523,26.862 39.461,6.085 L 5.3,5.104 6.282,3.142 0,0"
             style="fill:#ff0000;fill-opacity:1;fill-rule:nonzero;stroke:none"
             id="path36" />
        </g>
        <g
           id="g38"
           transform="translate(674.4161,400)">
          <path
             d="m 0,0 c 0,-1.871 -1.516,-3.385 -3.385,-3.385 -1.869,0 -3.385,1.514 -3.385,3.385 0,1.869 1.516,3.385 3.385,3.385 C -1.516,3.385 0,1.869 0,0"
             style="fill:#ff0000;fill-opacity:1;fill-rule:nonzero;stroke:none"
             id="path40" />
        </g>
      </g>
    </g>
    <g
       id="g110"
       inkscape:export-filename="../../../Dropbox/MetaAbsDesign/images/about.svg"
       inkscape:export-xdpi="96"
       inkscape:export-ydpi="96"
       transform="matrix(0.75748373,0,0,0.70942952,274.69948,251.74576)">
      <g
         id="g112"
         clip-path="url(#clipPath116)">
        <g
           id="g118">
          <g
             id="g120" />
          <g
             id="g132">
            <g
               clip-path="url(#clipPath124)"
               opacity="0.5"
               id="g130">
              <g
                 transform="translate(626.0751,425.0862)"
                 id="g128">
                <path
                   d="m 0,0 v -71.673 l 27.566,16.54 V 16.54 Z"
                   style="fill:#cccbcb;fill-opacity:1;fill-rule:nonzero;stroke:none"
                   id="path126" />
              </g>
            </g>
          </g>
        </g>
        <g
           id="g134"
           transform="translate(639.8584,397.5225)">
          <path
             d="m 0,0 c 4.595,-9.188 9.189,-18.378 13.783,-18.378 4.595,0 9.19,9.19 13.783,18.378"
             style="fill:none;stroke:#ec1e24;stroke-width:2;stroke-linecap:round;stroke-linejoin:round;stroke-miterlimit:10;stroke-dasharray:none;stroke-opacity:1"
             id="path136" />
        </g>
        <g
           id="g138"
           transform="translate(667.4248,397.5225)">
          <path
             d="M 0,0 C 4.595,9.189 9.189,18.378 13.784,18.378 18.067,18.378 22.352,10.39 27.565,0"
             style="fill:none;stroke:#ec1e24;stroke-width:2;stroke-linecap:round;stroke-linejoin:round;stroke-miterlimit:10;stroke-dasharray:none;stroke-opacity:1"
             id="path140" />
        </g>
        <g
           id="g142"
           transform="translate(694.9922,397.5225)">
          <path
             d="M 0,0 C 3.675,-7.351 7.351,-14.702 11.026,-17.349"
             style="fill:none;stroke:#ec1e24;stroke-width:2;stroke-linecap:round;stroke-linejoin:round;stroke-miterlimit:10;stroke-dasharray:none;stroke-opacity:1"
             id="path144" />
        </g>
      </g>
    </g>
  </g>
</svg>
